# xmcd
#
# Track frame offsets:
#	150
#	15900
#	35517
#	51975
#	67860
#	85202
#	101632
#
# Disc length: 1645
#
# Revision: 2
# Processed by: cddbd v1.5.1PL0 Copyright (c) Steve Scherf et al.
# Submitted via: EasyCDDAExtractor 5.1.0
# Normalized: r1:DSETVAR1
#
DISCID=4d066b07
DTITLE=Various Artist - Viva Nashvegas
DYEAR=1996
DGENRE=Country
TTITLE0=Brooks and Dunn - My Maria
TTITLE1=Pam Tillis - The River and The Highway
TTITLE2=Keith Gattis - Little Drops of My Heart
TTITLE3=Mindy McCready - Ten Thousand Angels
TTITLE4=Diamond Rio - Walkin' Away
TTITLE5=MC Potts - Back When
TTITLE6=Lisa Stewart and Marty Raybon - When I Find You
EXTD=ID3G: 2
EXTT0=
EXTT1=
EXTT2=
EXTT3=
EXTT4=
EXTT5=
EXTT6=
PLAYORDER=
